# xmcd
#
# Track frame offsets:
#  150
#  15504
#  32376
#  53216
#  67602
#  83769
#  103720
#  127559
#  145752
#  159167
#  189700
#  208524
#  235486
#  249139
#
# Disc length: 3561 seconds
#
# Revision: 0
# Processed by: cddbd v1.5.1PL0 Copyright (c) Steve Scherf et al.
# Submitted via: Collectorz.com Music Collector 6.9
#
DISCID=9f0de70e
DTITLE=Eugene Smith - Lovely Day
DYEAR=2005
DGENRE=Blues
TTITLE0=You and Me
TTITLE1=Talking Chair
TTITLE2=Lovely Day
TTITLE3=Brother To Sister
TTITLE4=Jelly Roll
TTITLE5=Julie
TTITLE6=Another Bright Spot
TTITLE7=You Are What You Are
TTITLE8=Thick Of Things
TTITLE9=Harmony
TTITLE10=Dust Off Our Dreams
TTITLE11=Big Old Wide World
TTITLE12=Strawberries
TTITLE13=Sippin' Margueritas
EXTD=
EXTT0=
EXTT1=
EXTT2=
EXTT3=
EXTT4=
EXTT5=
EXTT6=
EXTT7=
EXTT8=
EXTT9=
EXTT10=
EXTT11=
EXTT12=
EXTT13=
PLAYORDER=
